<?xml version="1.0" encoding="UTF-8"?>
<svg id="Layer_1" data-name="Layer 1" xmlns="http://www.w3.org/2000/svg" viewBox="0 0 1080 1080">
  <defs>
    <style>
      .cls-1 {
        fill: #fff;
      }
    </style>
  </defs>
  <path class="cls-1" d="M785.35,1036.03c0,19.31,15.65,34.97,34.97,34.97s34.97-15.65,34.97-34.97v-95.41c-22.08,16.92-45.42,32-69.93,45.14v50.26Z"/>
  <path class="cls-1" d="M855.28,463.55c0-19.31-15.65-34.97-34.97-34.97s-34.97,15.65-34.97,34.97v453.41c25.04-15.86,48.46-34.07,69.93-54.32v-399.09Z"/>
  <rect class="cls-1" x="386.64" y="333.11" width="69.93" height="342.85" rx="29.5" ry="29.5" transform="translate(1029.18 253.21) rotate(107.41)"/>
  <rect class="cls-1" x="651.62" y="331.27" width="69.93" height="347.15" rx="29.5" ry="29.5" transform="translate(962.86 -301.34) rotate(72.59)"/>
  <path class="cls-1" d="M703.96,957.81c-50.95,19.51-106.23,30.23-163.96,30.23-253.58,0-459.88-206.3-459.88-459.88S286.42,68.26,540,68.26s459.88,206.3,459.88,459.88c0,57.41-10.58,112.4-29.88,163.11l55.52,21.06c22.32-58.74,33.62-120.6,33.62-184.17,0-70.07-13.73-138.06-40.81-202.08-26.15-61.82-63.58-117.34-111.25-165.01-47.67-47.67-103.18-85.1-165.01-111.25-64.02-27.08-132.01-40.81-202.08-40.81s-138.06,13.73-202.08,40.81c-61.82,26.15-117.34,63.58-165.01,111.25-47.67,47.67-85.1,103.18-111.25,165.01-27.08,64.02-40.81,132.01-40.81,202.08s13.73,138.06,40.81,202.08c26.15,61.82,63.58,117.34,111.25,165.01,47.67,47.67,103.18,85.1,165.01,111.25,64.02,27.08,132.01,40.81,202.08,40.81,63.92,0,126.11-11.43,185.14-34l-21.18-55.49Z"/>
  <g>
    <path class="cls-1" d="M256.72,900.94v34.35c0,19.31,15.65,34.97,34.97,34.97,16.17,0,29.76-10.97,33.77-25.88-24.18-12.46-47.12-26.98-68.73-43.44Z"/>
    <path class="cls-1" d="M291.69,428.58c-19.31,0-34.97,15.65-34.97,34.97v321.86c20.76,22.84,44.25,43.17,69.93,60.47v-382.33c0-19.31-15.65-34.97-34.97-34.97Z"/>
  </g>
</svg>