<?xml version="1.0" encoding="UTF-8"?>
<svg id="Layer_1" data-name="Layer 1" xmlns="http://www.w3.org/2000/svg" viewBox="0 0 1649 1649">
  <path d="M1031.5,1253c0,16.29,13.21,29.5,29.5,29.5s29.5-13.21,29.5-29.5v-80.49c-18.62,14.27-38.32,27-59,38.09v42.41Z"/>
  <path d="M1090.5,770c0-16.29-13.21-29.5-29.5-29.5s-29.5,13.21-29.5,29.5v382.54c21.13-13.38,40.88-28.74,59-45.83v-336.71Z"/>
  <rect x="695.11" y="659.95" width="59" height="289.26" rx="29.5" ry="29.5" transform="translate(1709.15 353.91) rotate(107.41)"/>
  <rect x="918.67" y="658.4" width="59" height="292.89" rx="29.5" ry="29.5" transform="translate(1432.42 -340.71) rotate(72.59)"/>
  <path d="M962.83,1187c-42.99,16.46-89.62,25.5-138.33,25.5-213.94,0-388-174.06-388-388s174.06-388,388-388,388,174.06,388,388c0,48.44-8.92,94.83-25.21,137.62l46.84,17.77c18.83-49.56,28.37-101.75,28.37-155.39,0-59.12-11.58-116.48-34.43-170.5-22.06-52.16-53.64-99-93.86-139.22-40.22-40.22-87.06-71.79-139.22-93.86-54.01-22.85-111.38-34.43-170.5-34.43s-116.48,11.58-170.5,34.43c-52.16,22.06-99,53.64-139.22,93.86-40.22,40.22-71.79,87.06-93.86,139.22-22.85,54.02-34.43,111.38-34.43,170.5s11.58,116.48,34.43,170.5c22.06,52.16,53.64,99,93.86,139.22,40.22,40.22,87.06,71.79,139.22,93.86,54.01,22.85,111.38,34.43,170.5,34.43,53.93,0,106.4-9.65,156.2-28.68l-17.87-46.82Z"/>
  <g>
    <path d="M585.5,1139.02v28.98c0,16.29,13.21,29.5,29.5,29.5,13.64,0,25.11-9.26,28.49-21.83-20.4-10.51-39.76-22.76-57.99-36.65Z"/>
    <path d="M615,740.5c-16.29,0-29.5,13.21-29.5,29.5v271.55c17.52,19.27,37.33,36.42,59,51.02v-322.57c0-16.29-13.21-29.5-29.5-29.5Z"/>
  </g>
</svg>